<svg width="137" height="132" viewBox="0 0 137 132" fill="none" xmlns="http://www.w3.org/2000/svg">
<mask id="mask0_2902_1494" style="mask-type:alpha" maskUnits="userSpaceOnUse" x="0" y="0" width="120" height="132">
<path d="M96.0487 83.8039C96.0487 110.327 74.5474 131.828 48.0243 131.828C21.5012 131.828 0 110.327 0 83.8039C0 57.2808 84.4186 2.0915e-06 110.942 2.0915e-06C137.465 2.0915e-06 96.0487 57.2808 96.0487 83.8039Z" fill="#FFCB3C"/>
</mask>
<g mask="url(#mask0_2902_1494)">
<path fill-rule="evenodd" clip-rule="evenodd" d="M42.3031 77.3745C39.3345 76.129 35.9805 75.881 32.2836 76.9629C19.6596 80.6572 14.4902 90.4946 13.7988 102.213C12.8304 118.685 21.0476 138.961 28.4072 149.036C29.2675 150.213 30.9193 150.469 32.0962 149.611C33.2705 148.751 33.5291 147.099 32.6688 145.922C25.8449 136.581 18.1687 117.798 19.0685 102.525C19.6226 93.078 23.5914 85.0059 33.7666 82.0267C35.9674 81.3829 37.9702 81.4726 39.7725 82.1059C39.1866 83.2802 38.6272 84.457 38.0968 85.6339C35.9778 90.3468 32.8113 103.433 33.9935 113.054C34.9303 120.667 38.5269 126.126 45.9472 125.926C50.1957 125.812 53.3306 123.245 55.2121 119.036C57.5316 113.845 57.8483 105.905 56.2175 98.2922C54.8638 91.9618 52.1774 85.8873 48.4092 81.8024C47.8815 81.2298 47.3326 80.6942 46.7653 80.1981C59.1359 58.267 81.4629 37.9166 104.386 29.2482C105.748 28.7336 106.434 27.211 105.919 25.8468C105.405 24.4851 103.879 23.7991 102.518 24.3137C78.6077 33.3542 55.3018 54.5146 42.3031 77.3745ZM44.2057 85.0455C43.7571 85.9611 43.3242 86.8794 42.9126 87.7977C41.01 92.0277 38.1708 103.773 39.2316 112.41C39.7936 116.98 41.3531 120.769 45.8074 120.651C47.9923 120.593 49.4278 119.046 50.3936 116.883C51.6761 114.014 52.1326 110.125 51.9295 105.984C51.6102 99.5615 49.6707 92.5318 46.2561 87.5603C45.6254 86.642 44.9419 85.7949 44.2057 85.0455Z" fill="#3C3679"/>
<path fill-rule="evenodd" clip-rule="evenodd" d="M86.7166 62.253C88.7748 50.2491 96.6464 37.4773 105.104 28.6268C106.109 27.5739 106.072 25.9036 105.019 24.8956C103.966 23.8902 102.293 23.9272 101.288 24.98C92.1499 34.5457 83.7374 48.3914 81.5155 61.3611C81.2701 62.7966 82.236 64.1608 83.6715 64.4062C85.107 64.6516 86.4712 63.6885 86.7166 62.253Z" fill="#3C3679"/>
<path fill-rule="evenodd" clip-rule="evenodd" d="M101.515 24.4762C92.8202 29.4398 79.4837 30.0889 69.7624 27.5715C68.3507 27.2073 66.9099 28.0571 66.5458 29.4662C66.1816 30.8753 67.0287 32.3161 68.4405 32.6829C79.3703 35.509 94.356 34.6409 104.133 29.0598C105.397 28.3394 105.837 26.7244 105.114 25.4605C104.391 24.1965 102.779 23.7558 101.515 24.4762Z" fill="#3C3679"/>
</g>
<path fill-rule="evenodd" clip-rule="evenodd" d="M124.081 12.1751C124.055 11.6394 124.061 11.1178 124.086 10.6282C124.172 9.15591 125.54 9.16098 125.647 9.16301C125.87 9.16807 126.863 9.23091 127.102 10.3789C127.117 10.4473 127.152 10.943 127.162 11.134C127.183 11.5415 127.193 11.9419 127.137 12.3439C127.188 13.0255 127.299 13.727 127.512 14.3869C127.821 15.361 128.323 16.2601 129.23 16.7391C130.852 17.6007 132.986 17.5657 134.77 17.7847C135.515 17.8759 136.083 18.4973 136.108 19.2474C136.128 19.998 135.601 20.6528 134.861 20.7891C132.631 21.2017 130.066 23.2295 128.434 24.8625C127.933 25.3643 127.37 26.5594 126.742 27.3247C126.235 27.938 125.672 28.349 125.14 28.5122C124.932 28.5755 123.782 28.8067 123.265 27.6156C123.123 27.2811 122.621 25.5295 122.576 25.3298C122.302 24.1854 121.912 23.1631 121.146 22.2528C120.482 21.4637 119.676 20.7744 118.708 20.3923C118.318 20.2382 117.913 20.1211 117.507 20.0005C117.365 19.9833 116.965 19.9326 116.823 19.8845C116.534 19.7882 116.321 19.6371 116.169 19.4866C115.88 19.2018 115.733 18.8617 115.708 18.4745C115.688 18.219 115.723 17.9159 115.906 17.5799C116.042 17.3412 116.352 16.9818 116.909 16.7487C117.492 16.5049 118.744 16.2733 118.967 16.213C120.518 15.7953 122.038 15.1603 123.229 14.0595C123.822 13.5091 123.959 12.9156 124.081 12.1751ZM125.074 16.4852C125.672 17.7249 126.564 18.7684 127.806 19.4258C128.318 19.699 128.875 19.9063 129.453 20.0674C128.262 20.8966 127.157 21.8393 126.28 22.7131C125.997 22.9974 125.687 23.4576 125.358 23.9629C124.973 22.6137 124.405 21.4019 123.473 20.293C122.92 19.6392 122.297 19.0416 121.602 18.5434C122.859 18.0457 124.05 17.3797 125.074 16.4852Z" fill="#3C3679"/>
</svg>
