<svg width="113" height="36" viewBox="0 0 113 36" fill="none" xmlns="http://www.w3.org/2000/svg">
<path d="M23.3745 11.6239C23.1428 11.3988 22.8178 11.2965 22.4997 11.3488C22.1811 11.4009 21.9058 11.601 21.758 11.8881C21.2496 12.8758 20.6038 13.7834 19.844 14.5858C19.9198 14.0062 19.9579 13.4231 19.9579 12.8385C19.9579 11.7167 19.8076 10.5623 19.5109 9.40691C18.5355 5.61203 15.9778 2.40277 12.4938 0.602045C12.1905 0.445321 11.829 0.450823 11.5306 0.616719C11.2322 0.782681 11.0367 1.08696 11.01 1.42731C10.7383 4.87591 8.96202 8.01338 6.13371 10.0373C6.09628 10.0642 6.05912 10.0915 6.02196 10.1187C5.94498 10.175 5.87242 10.2283 5.80464 10.273C5.79402 10.2801 5.7835 10.2873 5.77318 10.2947C3.99439 11.5682 2.52669 13.2659 1.5285 15.2047C0.514258 17.1767 0 19.293 0 21.4944C0 22.6158 0.150336 23.7702 0.446865 24.9258C2.01173 31.0166 7.49293 35.2704 13.7762 35.2704C21.372 35.2704 27.5515 29.0905 27.5515 21.4944C27.5515 17.7485 26.0681 14.2431 23.3745 11.6239Z" fill="#CBCFFA"/>
<path d="M13.2487 25.7846C15.5772 25.7846 17.4648 23.897 17.4648 21.5686C17.4648 19.2401 15.5772 17.3525 13.2487 17.3525C10.9203 17.3525 9.03271 19.2401 9.03271 21.5686C9.03271 23.897 10.9203 25.7846 13.2487 25.7846Z" fill="#F8F8F8"/>
<path d="M107.906 15.6489V13.0546H107.102V12.4805H109.357V13.0546H108.565V15.6489H107.906ZM109.683 15.6489V12.4805H110.321L111.507 14.0541H111.21L112.362 12.4805H113V15.6489H112.341V13.2077L112.604 13.2673L111.384 14.8409H111.299L110.121 13.2673L110.342 13.2077V15.6489H109.683Z" fill="#131126"/>
<path d="M44.1228 29.3135C45.1846 29.3135 46.1234 29.1196 46.9402 28.7317C47.7567 28.3234 48.3794 27.711 48.808 26.8944V28.946H53.0953V12.2266H48.5018V21.9949C48.5018 22.9544 48.2161 23.7301 47.6446 24.3221C47.0727 24.8937 46.3379 25.1796 45.4399 25.1796C44.5414 25.1796 43.8067 24.8937 43.2348 24.3221C42.6633 23.7301 42.3775 22.9544 42.3775 21.9949V12.2266H37.7844V22.3623C37.7844 24.4446 38.3251 26.1288 39.4072 27.4149C40.5098 28.6806 42.0814 29.3135 44.1228 29.3135Z" fill="#131126"/>
<path d="M56.4523 10.726H61.0454V6.13281H56.4523V10.726ZM56.4523 28.946H61.0454V12.2265H56.4523V28.946Z" fill="#131126"/>
<path d="M66.428 28.9463H71.0211V16.2076H74.6037V12.2268H71.0211V11.9818C71.0211 10.4916 71.8887 9.74643 73.624 9.74643C73.9097 9.74643 74.2467 9.77708 74.6345 9.83832V5.91874C74.1651 5.81665 73.624 5.76562 73.0113 5.76562C70.9291 5.76562 69.3062 6.30662 68.1424 7.38856C66.9995 8.47055 66.428 10.0016 66.428 11.9818V12.2268H63.6106V16.2076H66.428V28.9463Z" fill="#131126"/>
<path d="M76.9663 28.9462H81.5598V19.9434C81.5598 18.6981 81.9068 17.7386 82.6008 17.0649C83.2951 16.3708 84.2036 16.0238 85.3261 16.0238H86.7653V12.043H85.7856C84.7647 12.043 83.8562 12.2369 83.0602 12.6248C82.2846 12.9922 81.6823 13.6966 81.2537 14.7377V12.2267H76.9663V28.9462Z" fill="#131126"/>
<path d="M91.3815 35.744C94.4435 35.744 96.6586 33.9986 98.0265 30.5077L105.192 12.2266H100.262L96.3116 22.9748L92.3612 12.2266H87.4311L94.0148 28.946L93.7087 29.6503C93.4638 30.2015 93.1472 30.6915 92.7594 31.1202C92.3716 31.5489 91.7285 31.7632 90.83 31.7632C90.0953 31.7632 89.4013 31.6612 88.7478 31.457V35.2235C89.0951 35.4072 89.493 35.5399 89.9424 35.6215C90.4118 35.7032 90.8917 35.744 91.3815 35.744Z" fill="#131126"/>
</svg>
