<svg width="25" height="25" viewBox="0 0 25 25" fill="none" xmlns="http://www.w3.org/2000/svg">
<path fill-rule="evenodd" clip-rule="evenodd" d="M8.03927 4C5.50927 4 3.87427 5.733 3.87427 8.416V16.584C3.87427 19.267 5.50927 21 8.03927 21H16.7073C19.2383 21 20.8743 19.267 20.8743 16.584V8.416C20.8743 5.733 19.2383 4 16.7083 4H8.03927ZM16.7073 22.5H8.03927C4.65027 22.5 2.37427 20.122 2.37427 16.584V8.416C2.37427 4.878 4.65027 2.5 8.03927 2.5H16.7083C20.0973 2.5 22.3743 4.878 22.3743 8.416V16.584C22.3743 20.122 20.0973 22.5 16.7073 22.5V22.5Z" fill="black"/>
<path fill-rule="evenodd" clip-rule="evenodd" d="M11.1878 15.6232C10.9968 15.6232 10.8038 15.5502 10.6578 15.4032L8.28378 13.0302C7.99078 12.7372 7.99078 12.2632 8.28378 11.9702C8.57678 11.6772 9.05078 11.6772 9.34378 11.9702L11.1878 13.8122L15.4038 9.59719C15.6968 9.30419 16.1708 9.30419 16.4638 9.59719C16.7568 9.89019 16.7568 10.3642 16.4638 10.6572L11.7178 15.4032C11.5718 15.5502 11.3798 15.6232 11.1878 15.6232" fill="black"/>
</svg>
