<svg width="24" height="25" viewBox="0 0 24 25" fill="none" xmlns="http://www.w3.org/2000/svg">
<path fill-rule="evenodd" clip-rule="evenodd" d="M7.665 4C5.135 4 3.5 5.733 3.5 8.416V16.584C3.5 19.267 5.135 21 7.665 21H16.333C18.864 21 20.5 19.267 20.5 16.584V8.416C20.5 5.733 18.864 4 16.334 4H7.665ZM16.333 22.5H7.665C4.276 22.5 2 20.122 2 16.584V8.416C2 4.878 4.276 2.5 7.665 2.5H16.334C19.723 2.5 22 4.878 22 8.416V16.584C22 20.122 19.723 22.5 16.333 22.5V22.5Z" fill="black"/>
<path fill-rule="evenodd" clip-rule="evenodd" d="M10.8135 15.6232C10.6225 15.6232 10.4295 15.5502 10.2835 15.4032L7.9095 13.0302C7.6165 12.7372 7.6165 12.2632 7.9095 11.9702C8.2025 11.6772 8.6765 11.6772 8.9695 11.9702L10.8135 13.8122L15.0295 9.59719C15.3225 9.30419 15.7965 9.30419 16.0895 9.59719C16.3825 9.89019 16.3825 10.3642 16.0895 10.6572L11.3435 15.4032C11.1975 15.5502 11.0055 15.6232 10.8135 15.6232" fill="black"/>
</svg>
