<svg width="25" height="24" viewBox="0 0 25 24" fill="none" xmlns="http://www.w3.org/2000/svg">
<path fill-rule="evenodd" clip-rule="evenodd" d="M8.0393 3.5C5.5093 3.5 3.8743 5.233 3.8743 7.916V16.084C3.8743 18.767 5.5093 20.5 8.0393 20.5H16.7073C19.2383 20.5 20.8743 18.767 20.8743 16.084V7.916C20.8743 5.233 19.2383 3.5 16.7083 3.5H8.0393ZM16.7073 22H8.0393C4.6503 22 2.3743 19.622 2.3743 16.084V7.916C2.3743 4.378 4.6503 2 8.0393 2H16.7083C20.0973 2 22.3743 4.378 22.3743 7.916V16.084C22.3743 19.622 20.0973 22 16.7073 22V22Z" fill="#131126"/>
<path fill-rule="evenodd" clip-rule="evenodd" d="M11.1878 15.1232C10.9968 15.1232 10.8038 15.0502 10.6578 14.9032L8.28379 12.5302C7.99079 12.2372 7.99079 11.7632 8.28379 11.4702C8.57679 11.1772 9.05079 11.1772 9.34379 11.4702L11.1878 13.3122L15.4038 9.09719C15.6968 8.80419 16.1708 8.80419 16.4638 9.09719C16.7568 9.39019 16.7568 9.86419 16.4638 10.1572L11.7178 14.9032C11.5718 15.0502 11.3798 15.1232 11.1878 15.1232" fill="#131126"/>
</svg>
