<svg width="25" height="25" viewBox="0 0 25 25" fill="none" xmlns="http://www.w3.org/2000/svg">
<mask id="mask0_2902_1458" style="mask-type:luminance" maskUnits="userSpaceOnUse" x="2" y="9" width="21" height="15">
<path fill-rule="evenodd" clip-rule="evenodd" d="M2.37466 9.29395H22.3743V23.0379H2.37466V9.29395Z" fill="white"/>
</mask>
<g mask="url(#mask0_2902_1458)">
<path fill-rule="evenodd" clip-rule="evenodd" d="M17.9397 23.0379H6.80966C4.36466 23.0379 2.37466 21.0489 2.37466 18.6029V13.7279C2.37466 11.2829 4.36466 9.29395 6.80966 9.29395H7.74266C8.15666 9.29395 8.49266 9.62995 8.49266 10.0439C8.49266 10.4579 8.15666 10.7939 7.74266 10.7939H6.80966C5.19066 10.7939 3.87466 12.1099 3.87466 13.7279V18.6029C3.87466 20.2219 5.19066 21.5379 6.80966 21.5379H17.9397C19.5577 21.5379 20.8747 20.2219 20.8747 18.6029V13.7189C20.8747 12.1059 19.5627 10.7939 17.9507 10.7939H17.0077C16.5937 10.7939 16.2577 10.4579 16.2577 10.0439C16.2577 9.62995 16.5937 9.29395 17.0077 9.29395H17.9507C20.3897 9.29395 22.3747 11.2789 22.3747 13.7189V18.6029C22.3747 21.0489 20.3847 23.0379 17.9397 23.0379" fill="black"/>
</g>
<mask id="mask1_2902_1458" style="mask-type:luminance" maskUnits="userSpaceOnUse" x="11" y="2" width="3" height="15">
<path fill-rule="evenodd" clip-rule="evenodd" d="M11.6243 2.5H13.1243V16.0409H11.6243V2.5Z" fill="white"/>
</mask>
<g mask="url(#mask1_2902_1458)">
<path fill-rule="evenodd" clip-rule="evenodd" d="M12.3743 16.041C11.9603 16.041 11.6243 15.705 11.6243 15.291V3.25C11.6243 2.836 11.9603 2.5 12.3743 2.5C12.7883 2.5 13.1243 2.836 13.1243 3.25V15.291C13.1243 15.705 12.7883 16.041 12.3743 16.041" fill="black"/>
</g>
<path fill-rule="evenodd" clip-rule="evenodd" d="M9.45926 6.92853C9.26826 6.92853 9.07626 6.85553 8.93026 6.70953C8.63726 6.41753 8.63526 5.94353 8.92826 5.64953L11.8433 2.72153C12.1243 2.43853 12.6243 2.43853 12.9053 2.72153L15.8213 5.64953C16.1133 5.94353 16.1123 6.41753 15.8193 6.70953C15.5253 7.00153 15.0513 7.00153 14.7593 6.70753L12.3743 4.31353L9.99026 6.70753C9.84426 6.85553 9.65126 6.92853 9.45926 6.92853" fill="black"/>
</svg>
