<svg width="63" height="63" viewBox="0 0 63 63" fill="none" xmlns="http://www.w3.org/2000/svg">
<path d="M3.9375 31.496C3.9375 46.716 16.2794 59.0588 31.5011 59.0588C46.7227 59.0588 59.0625 46.716 59.0625 31.496C59.0625 16.272 46.7227 3.93384 31.5011 3.93384C16.2794 3.93384 3.9375 16.272 3.9375 31.496Z" fill="url(#paint0_linear_2902_1583)"/>
<path fill-rule="evenodd" clip-rule="evenodd" d="M38.6777 49.4654C39.4003 48.7694 43.6414 44.6854 46.0808 41.9953C48.4057 39.4245 49.5748 36.1167 49.3648 32.6867C49.1491 29.1542 47.5005 25.8828 44.7193 23.4804C40.1262 19.5091 32.7025 19.5898 28.171 23.6567C26.518 25.1379 24.6508 27.1698 24.5711 27.2569C23.3795 28.5527 23.4676 30.5701 24.761 31.7611C26.0565 32.95 28.0682 32.8656 29.2629 31.5712C29.2789 31.5522 31.0011 29.678 32.422 28.4057C34.8077 26.264 38.6233 26.6351 40.5551 28.3053C42.0267 29.5755 42.8961 31.2688 43.0064 33.0728C43.1102 34.7753 42.5246 36.425 41.3608 37.7102C39.0619 40.2508 34.8297 44.3233 34.2449 44.886C34.2036 44.9257 34.1807 44.9479 34.1775 44.951C32.9067 46.1685 32.8603 48.1829 34.0771 49.4576C34.7026 50.1113 35.538 50.4423 36.3802 50.4423C37.1699 50.4423 37.9624 50.1483 38.578 49.5614C38.5915 49.5483 38.6254 49.5157 38.6777 49.4654ZM18.6694 39.2918C20.9299 41.2466 23.8743 42.2223 26.8228 42.2223C29.868 42.2223 32.9168 41.183 35.2174 39.1162C36.7331 37.7548 38.4328 35.9323 38.7629 35.5782C38.7926 35.5466 38.8111 35.5266 38.8175 35.5198C40.0085 34.224 39.9222 32.2052 38.6277 31.0155C37.3347 29.8229 35.3182 29.906 34.1282 31.2031C34.1276 31.2038 34.1246 31.207 34.1194 31.2127C33.9835 31.3594 32.3345 33.1415 30.9676 34.3708C28.5807 36.5084 24.7665 36.1426 22.8323 34.4687C21.3624 33.1975 20.493 31.5038 20.3816 29.6984C20.2778 27.9976 20.8645 26.3517 22.0283 25.0614C24.4909 22.3439 29.1636 17.8692 29.2115 17.8237C30.4831 16.6075 30.5264 14.5904 29.3122 13.317C28.0951 12.0454 26.0809 11.9968 24.8101 13.2146L24.7891 13.2347C24.3963 13.6116 19.8631 17.9603 17.3103 20.7807C14.9818 23.3501 13.8174 26.6576 14.0232 30.0863C14.2407 33.6207 15.8893 36.8898 18.6694 39.2918Z" fill="white"/>
<defs>
<linearGradient id="paint0_linear_2902_1583" x1="3.9375" y1="59.0588" x2="3.9375" y2="3.93384" gradientUnits="userSpaceOnUse">
<stop stop-color="#2255FF"/>
<stop offset="1" stop-color="#00AAFF"/>
</linearGradient>
</defs>
</svg>
