<svg width="63" height="63" viewBox="0 0 63 63" fill="none" xmlns="http://www.w3.org/2000/svg">
<circle cx="31.5" cy="31.5" r="27.5625" fill="#5FCF80"/>
<path d="M47.0953 20.314C45.5257 19.3749 43.7548 18.0575 42.1173 19.7413C40.0826 22.6306 36.3472 26.5209 38.2533 30.3009C39.0228 31.7516 40.2945 32.834 41.3167 34.0952C41.9164 34.7119 42.2329 35.515 42.1173 36.3861C41.9781 37.5674 41.0382 38.4981 39.8894 38.6413C38.3577 38.8202 37.0349 37.5674 37.0349 36.0282C36.8957 35.2049 37.1046 33.3435 35.7121 33.1288C34.807 32.9856 33.6583 34.4532 33.0665 36.3861C32.5929 37.9823 32.8576 39.3404 32.8576 40.9322C32.8576 42.6375 31.623 44.1707 29.7943 43.9748C28.5759 43.8316 27.5316 42.8293 27.3575 41.5765C27.2047 40.5815 27.6333 39.5704 28.2278 38.7844C28.8196 37.8896 29.7246 36.5293 30.1772 35.2765C30.6645 33.9521 31.3801 32.8961 30.4557 32.1981C29.5312 31.5 25.6085 37.34 23.4587 36.9589C22.484 36.7799 21.7181 35.9566 21.5441 34.9901C21.2656 33.5225 22.2055 32.2339 23.4935 31.9833C25.0053 31.709 29.4858 30.0236 28.9936 28.189C28.5463 26.6251 24.7022 29.5223 23.4587 29.406C22.2751 29.3702 21.3352 28.3322 21.3004 27.1151C21.3004 25.7537 22.3876 24.7884 23.7024 24.7884C25.2429 24.7884 26.7661 25.4384 28.3322 25.0748C32.3465 24.1835 33.8496 20.6035 35.8514 17.4146C36.7913 15.9111 36.3387 13.8708 34.807 12.9759C32.9276 11.9291 30.9842 11.3072 28.9588 12.5106L15.8699 20.314C14.5819 21.0657 13.7812 22.4975 13.7812 24.0367V38.9992C13.7812 40.5384 14.5819 41.9702 15.8699 42.7219L28.9936 50.4896C30.5253 51.4202 32.4399 51.4202 34.0064 50.4896L47.1301 42.7219C48.4181 41.9702 49.2188 40.5384 49.2188 38.9992V24.0367C49.1839 22.4975 48.3833 21.0657 47.0953 20.314Z" fill="white"/>
</svg>
